<?xml version="1.0" encoding="UTF-8"?>
<svg width="1306px" height="987px" viewBox="0 0 1306 987" version="1.1" xmlns="http://www.w3.org/2000/svg" xmlns:xlink="http://www.w3.org/1999/xlink">
    <!-- Generator: Sketch 54.1 (76490) - https://sketchapp.com -->
    <title>Slice 1</title>
    <desc>Created with Sketch.</desc>
    <g id="Page-1" stroke="none" stroke-width="1" fill="none" fill-rule="evenodd">
        <g id="illustration-agency" transform="translate(0.000000, 36.000000)">
            <path d="M656.808457,658.241086 C631.288558,628.258526 542.349662,635.499416 389.991771,679.963756 C345.005987,685.024196 300.170452,684.545366 257.86714,678.596329 C174.785744,666.912745 101.471339,634.130125 55.9676134,580.771632 C-63.3178241,440.841474 10.7782547,-38.5310673 270.383682,2.96936032 C529.98911,44.4697879 685.843105,183.538746 705.158151,241.399994 C724.473196,299.261243 770.059652,239.354694 781.572417,282.661705 C974.128899,200.237091 1171.6791,152.631986 1253.40506,226.262796 C1335.13102,299.893607 1329.89532,596.373222 1172.02378,698.737043 C1053.017,775.895256 726.44524,740.055239 656.808457,658.241086 Z" id="Path" fill="#F0F8F7" fill-rule="nonzero"></path>
            <path d="M768,594.59 L768,714.59 C762,712.796667 756,710.97 750,709.11 L750,594.59 L768,594.59 Z" id="Path" fill="#595959" fill-rule="nonzero"></path>
            <g id="Group" transform="translate(242.000000, 458.000000)" fill="#494949" fill-rule="nonzero">
                <polygon id="Path" points="0.06 0.83 32.49 0.83 32.49 171.59 0.06 171.59"></polygon>
                <polygon id="Path" points="25.25 171.59 25.25 175.8 7.25 177.28 7.25 171.59"></polygon>
                <polygon id="Path" points="500.83 0.83 533.26 0.83 533.26 171.59 500.83 171.59"></polygon>
                <polygon id="Path" points="508.05 171.59 526.02 171.59 526.02 182.09 508.05 182.09"></polygon>
            </g>
            <polygon id="Path" fill="#734923" fill-rule="nonzero" points="78.89 423.53 295.41 423.53 295.41 451.77 78.89 451.77"></polygon>
            <polygon id="Path" fill="#9A612E" fill-rule="nonzero" points="295.4 423.53 910.44 423.53 910.44 451.77 295.4 451.77"></polygon>
            <polygon id="Path" fill="#3A3A3A" fill-rule="nonzero" points="163.61 451.77 850.82 451.77 850.82 458.83 163.61 458.83"></polygon>
            <path d="M575.24,344.33 L915.9,344.33 L915.9,360.63 C915.9,369.527307 908.687307,376.74 899.79,376.74 L591.35,376.74 C582.452693,376.74 575.24,369.527307 575.24,360.63 L575.24,344.33 L575.24,344.33 Z" id="Path" fill="#464648" fill-rule="nonzero"></path>
            <path d="M575.24,141.97 L915.9,141.97 L915.9,328.19 C915.9,337.087307 908.687307,344.3 899.79,344.3 L591.35,344.3 C582.452693,344.3 575.24,337.087307 575.24,328.19 L575.24,141.97 L575.24,141.97 Z" id="Path" fill="#FFFFFF" fill-rule="nonzero" transform="translate(745.570000, 243.135000) rotate(-180.000000) translate(-745.570000, -243.135000) "></path>
            <path d="M899.79,146.57 C906.144512,146.575514 911.294486,151.725488 911.3,158.08 L911.3,339.73 L579.84,339.73 L579.84,158.08 C579.845514,151.725488 584.995488,146.575514 591.35,146.57 L899.78,146.57 L899.79,146.57 Z M899.78,141.97 L591.35,141.97 C582.452693,141.97 575.24,149.182693 575.24,158.08 L575.24,344.33 L915.9,344.33 L915.9,158.08 C915.883453,149.194411 908.675605,141.999985 899.79,142 L899.78,141.97 Z" id="Shape" fill="#000000" fill-rule="nonzero"></path>
            <path d="M786.61,409 L782.4,376.73 L708.74,376.73 L704.53,409 C704.279122,410.914818 703.238392,412.63728 701.66,413.75 L694.93,418.49 C693.961034,419.187422 693.550319,420.428782 693.912113,421.566498 C694.273906,422.704214 695.326183,423.480343 696.52,423.49 L794.61,423.49 C795.803817,423.480343 796.856094,422.704214 797.217887,421.566498 C797.579681,420.428782 797.168966,419.187422 796.2,418.49 L789.47,413.75 C787.895384,412.635335 786.858451,410.913156 786.61,409 L786.61,409 Z" id="Path" fill="#2A2A2A" fill-rule="nonzero"></path>
            <path d="M794.62,423.53 L696.52,423.53 C695.326183,423.520343 694.273906,422.744214 693.912113,421.606498 C693.550319,420.468782 693.961034,419.227422 694.93,418.53 L796.2,418.53 C797.167558,419.22632 797.578725,420.465146 797.219538,421.601814 C796.860351,422.738482 795.811989,423.516097 794.62,423.53 L794.62,423.53 Z" id="Path" fill="#000000" fill-rule="nonzero"></path>
            <polygon id="Path" fill="#000000" fill-rule="nonzero" opacity="0.4" points="783.06 381.81 708.08 381.81 708.74 376.75 782.4 376.75"></polygon>
            <g id="Group" transform="translate(588.000000, 154.000000)" fill="#E6E7E8" fill-rule="nonzero">
                <polygon id="Path" points="0.44 13.63 32.44 13.63 32.44 176.96 0.44 176.96"></polygon>
                <polygon id="Path" points="268.44 16.29 316.44 16.29 316.44 173.62 268.44 173.62"></polygon>
                <polygon id="Path" points="0.44 0.96 316.44 0.96 316.44 7.63 0.44 7.63"></polygon>
                <path d="M244.77,26.63 L244.77,162 C244.7645,164.571365 242.681365,166.6545 240.11,166.66 L70.11,166.66 C67.5386348,166.6545 65.4555003,164.571365 65.45,162 L65.45,26.63 L244.78,26.63 L244.77,26.63 Z M245.78,25.63 L64.44,25.63 L64.44,162 C64.44,165.125932 66.9740683,167.66 70.1,167.66 L240.1,167.66 C243.225932,167.66 245.76,165.125932 245.76,162 L245.76,25.63 L245.78,25.63 Z" id="Shape"></path>
                <polygon id="Path" points="64.44 25.63 245.77 25.63 245.77 28.74 64.44 28.74"></polygon>
            </g>
            <path d="M768.12,231 C765.061926,211.299017 747.687236,197.042681 727.768358,197.890541 C707.849481,198.738401 691.749103,214.419627 690.376228,234.309216 C689.003353,254.198805 702.796518,271.943426 722.41,275.52 L723.41,276.11 L723.41,303.5 L795.91,303.5 L795.91,231 L768.12,231 Z M723.43,269.18 L722.88,269.5 C706.515646,266.218916 695.142394,251.283474 696.331125,234.635816 C697.519857,217.988159 710.899841,204.82023 727.564363,203.897584 C744.228885,202.974938 758.980742,214.585322 762,231 L723.43,231 L723.43,269.18 Z M789.93,297.5 L729.43,297.5 L729.43,279.52 L736.37,283.52 L746.31,289.26 L755.31,294.45 L755.31,250.73 L746.31,255.92 L736.37,261.66 L729.43,265.66 L729.43,237 L789.93,237 L789.93,297.5 Z M729.43,272.65 L734.43,269.78 L739.43,266.91 L749.37,261.17 L749.37,284.17 L739.43,278.43 L734.91,275.82 L729.43,272.65 Z" id="Shape" fill="#000000" fill-rule="nonzero"></path>
            <polygon id="Path" fill="#EC9B00" fill-rule="nonzero" points="749.31 261.12 749.31 284.07 739.37 278.33 734.85 275.72 729.43 272.6 734.4 269.73 739.37 266.86"></polygon>
            <polygon id="Path" fill="#EA177A" fill-rule="nonzero" points="789.93 236.95 789.93 297.45 729.43 297.45 729.43 279.52 736.37 283.53 746.31 289.27 755.31 294.46 755.31 250.73 746.31 255.92 736.37 261.66 729.43 265.67 729.43 236.95"></polygon>
            <path d="M762,231 L723.43,231 L723.43,269.18 L722.88,269.5 C706.515646,266.218916 695.142394,251.283474 696.331125,234.635816 C697.519857,217.988159 710.899841,204.82023 727.564363,203.897584 C744.228885,202.974938 758.980742,214.585322 762,231 L762,231 Z" id="Path" fill="#00ABE6" fill-rule="nonzero"></path>
            <polygon id="Path" fill="#B8BEBC" fill-rule="nonzero" transform="translate(979.412449, 674.094919) rotate(4.900000) translate(-979.412449, -674.094919) " points="930.797448 670.754919 1028.02745 670.754919 1028.02745 677.434919 930.797448 677.434919"></polygon>
            <polygon id="Path" fill="#000000" fill-rule="nonzero" opacity="0.1" transform="translate(1018.310006, 677.435004) rotate(4.900000) translate(-1018.310006, -677.435004) " points="1008.74001 674.095004 1027.88001 674.095004 1027.88001 680.775004 1008.74001 680.775004"></polygon>
            <rect id="Rectangle" fill="#413634" fill-rule="nonzero" transform="translate(1025.531088, 678.054466) rotate(4.900000) translate(-1025.531088, -678.054466) " x="1017.43109" y="672.079466" width="16.2000001" height="11.95" rx="2.97"></rect>
            <path d="M773.77,569.85 C773.77,569.85 748.39,566.72 742.45,569.85 C736.51,572.98 731,583 738,592.28 C745,601.56 917.73,667.28 958.81,656.81 L982.35,630.5 L989.35,595.99 L963.61,586.34 L854.51,569.85 L783.63,565.56 L773.77,569.85 Z" id="Path" fill="#E0CA8E" fill-rule="nonzero"></path>
            <path d="M773.77,569.85 C773.77,569.85 830.27,602.67 914.28,607.85 C998.29,613.03 986.64,599.19 986.64,599.19 L918.88,578.9 L804.3,558.14 L773.77,569.85 Z" id="Path" fill="#000000" fill-rule="nonzero" opacity="0.1"></path>
            <path d="M456.21,277.34 C456.21,277.34 439.14,275.61 434.93,293.42 C430.72,311.23 432.2,343 448.17,356 C464.14,369 460.17,316.67 460.17,316.67 L456.21,277.34 Z" id="Path" fill="#093B84" fill-rule="nonzero"></path>
            <path d="M470.16,283.56 C470.16,283.56 463.16,275.11 456.21,277.33 C449.26,279.55 434.44,283.27 436.42,316.17 C438.4,349.07 464.42,382.61 464.42,382.61 L478.42,389.15 C478.42,389.15 493.64,354.76 492.15,354.76 C490.66,354.76 473.35,289.26 473.35,289.26 L470.16,283.56 Z" id="Path" fill="#1A599E" fill-rule="nonzero"></path>
            <path d="M465.39,367.76 C465.39,367.76 454.85,379.82 454.67,394.29 C454.49,408.76 491.22,421.94 507.18,422.68 C523.14,423.42 528.33,430.47 535.75,440.86 C543.17,451.25 704.35,584.6 928.25,599.2 L874.37,494 C874.37,494 805.54,476.47 780.31,472 C755.08,467.53 698.67,429 669,432.7 C639.33,436.4 560.64,398.19 547.28,396.33 C533.92,394.47 465.39,367.76 465.39,367.76 L465.39,367.76 Z" id="Path" fill="#3D3D3D" fill-rule="nonzero"></path>
            <polygon id="Path" fill="#FFC691" fill-rule="nonzero" points="526.29 304.12 532.23 317.11 507.92 334.24 494 312.84 498.83 289.27"></polygon>
            <path d="M495.3,231.2 C495.3,231.2 485.65,227.12 481.38,236.95 C477.11,246.78 469.07,277.83 469.32,296.88 C469.57,315.93 469.06,330.03 469.32,333.25 C469.58,336.47 462.4,372.34 466.85,378.03 C471.3,383.72 478,379.51 478,379.51 L496.56,365.16 L490.37,313.45 L494,259.52 L497.77,237.52 L495.3,231.2 Z" id="Path" fill="#093B84" fill-rule="nonzero"></path>
            <path d="M466.85,378 C466.85,378 475.26,375.28 476,346.83 C476.74,318.38 478.75,279.29 481.58,268.9 C484.41,258.51 489.86,236.54 489.86,230.33" id="Path" stroke="#AFDCF1"></path>
            <path d="M507.08,301.24 C507.08,301.24 522.2,314.32 530.37,308.48 C538.54,302.64 525.61,299.23 519.79,290.82 C513.97,282.41 503.95,278.82 506.94,235.06 C507.048943,233.705849 506.413033,232.399552 505.28,231.65 C502.325371,229.546037 498.411661,229.36992 495.28,231.2 C495.28,231.2 483.03,278.7 484.15,300.6 C485.27,322.5 482.67,367.6 477.96,379.52 C477.96,379.52 488.2,387.68 505.47,377.52 L507.9,334.22 L505.47,301.75 C505.47,301.75 505.86,300.25 507.08,301.24 L507.08,301.24 Z" id="Path" fill="#1A599E" fill-rule="nonzero"></path>
            <path d="M691.47,431.27 L689.79,435.06 C682.08,433 675,432 669,432.75 C639.31,436.46 560.64,398.24 547.28,396.38 C538.91,395.22 508.91,384.3 487.67,376.31 C483.13,343.22 530.44,313.15 530.44,313.15 C530.44,313.15 546.55,322.15 565.1,340.72 C583.65,359.29 609.6,370.41 625.93,386 C642.26,401.59 691.47,431.27 691.47,431.27 Z" id="Path" fill="#3D3D3D" fill-rule="nonzero"></path>
            <path d="M691.71,437.69 L690,441.48 C682.3,439.4 675.19,438.42 669.19,439.18 C639.5,442.89 560.83,404.67 547.47,402.81 C539.1,401.65 509.1,390.73 487.86,382.74 C487.86,382.74 487.86,382.64 487.86,382.59 C491.80108,382.739562 495.729526,382.058132 499.39,380.59 C518.75,387.74 540.54,395.4 547.48,396.37 C560.84,398.23 639.48,436.45 669.2,432.74 C674.711886,432.235477 680.269374,432.661416 685.64,434 C689.41,436.31 691.71,437.69 691.71,437.69 L691.71,437.69 Z" id="Path" fill="#000000" fill-rule="nonzero" opacity="0.1"></path>
            <path d="M735.94,345.37 L639.78,345.37 L704.6,464.62 L799.36,451 L737.56,346.3 C737.223103,345.72468 736.606702,345.370821 735.94,345.37 L735.94,345.37 Z" id="Path" fill="#7B7D81" fill-rule="nonzero"></path>
            <polygon id="Path" fill="#FFFFFF" fill-rule="nonzero" points="650.43 354.03 738.32 354.03 792.69 446.92 705.02 455.67"></polygon>
            <path d="M737.89,354.77 L791.46,446.3 L705.46,454.88 L651.67,354.77 L737.9,354.77 L737.89,354.77 Z M738.75,353.29 L649.19,353.29 L704.6,456.46 L793.91,447.55 L738.74,353.29 L738.75,353.29 Z" id="Shape" fill="#000000" fill-rule="nonzero"></path>
            <path d="M707.57,458.19 L707.57,465.19 C707.572381,465.715156 707.952183,466.162478 708.47,466.25 L872.85,493.88 L854.66,483.48 L707.57,458.19 Z" id="Path" fill="#5B5D61" fill-rule="nonzero"></path>
            <polygon id="Path" fill="#95979A" fill-rule="nonzero" points="799.36 451.01 707.57 458.19 854.66 483.48 881.99 451.01"></polygon>
            <path d="M741,385.53 L726.13,385.53 C718.05,375.48 704.33,367.76 693.85,367.76 C682.28,367.76 678.98,377.18 686.49,388.76 C693.17,399.04 706.19,407.62 717.12,409.4 L717.88,409.72 L727.41,424.4 L766.27,424.4 L741,385.53 Z M715.24,406.17 C706.05,404.54 695.24,397.36 689.67,388.75 C683.3,378.93 686.09,370.98 695.9,370.98 C704.62,370.98 715.9,377.25 722.83,385.53 L702.13,385.53 L715.46,406 L715.24,406.17 Z M722.24,411.56 L727.35,413.71 L734.68,416.79 L741.31,419.57 L731.51,404.48 L728.51,399.85 L726.1,396.13 L723.1,398.91 L719.8,402 L717.48,404.15 L707.48,388.76 L739.91,388.76 L761,421.17 L728.54,421.17 L722.24,411.56 Z M719.83,407.85 L721.49,406.32 L723.16,404.78 L726.49,401.7 L727.31,402.96 L729.81,406.81 L734.48,414 L727.15,410.93 L723.82,409.53 L719.83,407.85 Z" id="Shape" fill="#000000" fill-rule="nonzero"></path>
            <polygon id="Path" fill="#EC9B00" fill-rule="nonzero" points="734.54 414 727.21 410.93 723.88 409.53 719.89 407.85 721.55 406.32 723.22 404.78 726.55 401.7 727.37 402.96 729.87 406.81"></polygon>
            <polygon id="Path" fill="#EA177A" fill-rule="nonzero" points="760.97 421.17 728.54 421.17 722.3 411.56 727.41 413.71 734.74 416.79 741.37 419.57 731.57 404.48 728.56 399.85 726.15 396.13 723.13 398.91 719.8 401.99 717.48 404.14 707.48 388.75 739.91 388.75"></polygon>
            <path d="M702.17,385.53 L715.46,406 L715.28,406.18 C706.09,404.55 695.28,397.37 689.71,388.76 C683.34,378.94 686.13,370.99 695.94,370.99 C704.66,370.99 715.94,377.26 722.87,385.54 L702.17,385.53 Z" id="Path" fill="#00ABE6" fill-rule="nonzero"></path>
            <path d="M974.14,429.54 C966.417492,450.171358 960.377767,471.394 956.08,493 C950.963121,492.250548 945.801234,491.849625 940.63,491.8 C923.74,491.56 913.48,488.25 907.39,484.87 C908.202741,484.318034 909.055049,483.826703 909.94,483.4 C914.14,481.49 922.07,473.25 927.25,469.05 C932.25,464.98 942.11,451.24 946.07,449.75 C949.81,448.37 966.91,442 974.14,429.54 L974.14,429.54 Z" id="Path" fill="#8C99AD" fill-rule="nonzero"></path>
            <path d="M890.73,656.81 L964.73,656.81 L964.73,668.32 C964.73,676.73682 957.90682,683.56 949.49,683.56 L906,683.56 C897.58318,683.56 890.76,676.73682 890.76,668.32 L890.76,656.81 L890.73,656.81 Z" id="Path" fill="#413634" fill-rule="nonzero"></path>
            <path d="M909.3,683.57 L946.17,683.57 L946.17,731.45 C946.17,733.106854 944.826854,734.45 943.17,734.45 L912.23,734.45 C910.573146,734.45 909.23,733.106854 909.23,731.45 L909.23,683.57 L909.3,683.57 Z" id="Path" fill="#413634" fill-rule="nonzero"></path>
            <polygon id="Path" fill="#000000" fill-rule="nonzero" opacity="0.4" points="909.3 683.57 946.17 683.57 946.17 690.17 909.3 690.17"></polygon>
            <path d="M816.4,465.27 C816.4,465.27 825.96,467.27 826.05,469.82 C826.14,472.37 812.5,469.73 811.86,469.08 C811.22,468.43 812.68,464.28 816.4,465.27 Z" id="Path" fill="#000000" fill-rule="nonzero" opacity="0.1"></path>
            <path d="M842.41,476 C842.41,476 835.14,474.33 831.41,476 C827.68,477.67 842.64,479.89 846.35,478.78 C850.06,477.67 845.05,475.26 845.05,475.26 L842.41,476 Z" id="Path" fill="#000000" fill-rule="nonzero" opacity="0.1"></path>
            <path d="M877.29,477.48 C877.29,477.48 868.88,509.15 877.29,532.9 C885.7,556.65 911.43,595.74 928.29,599.2 C945.15,602.66 986.68,599.2 986.68,599.2 L985.94,572.2 L977.28,486.35 L993.11,440.06 L1019,393.86 L1069.27,379 L1121.94,379 L1126.17,373.56 L1083.62,354.26 L960.41,356.26 C960.41,356.26 923.79,429.88 923.79,427.46 C923.79,425.04 877.29,477.48 877.29,477.48 L877.29,477.48 Z" id="Path" fill="#51C1B7" fill-rule="nonzero"></path>
            <path d="M863.43,434.44 C863.43,434.44 855.76,434.19 853.53,437.66 C853.53,437.66 837.2,431.23 834.53,433.21 C831.86,435.19 829.09,437.66 829.09,437.66 C829.09,437.66 822.41,436.66 819.69,440.88 C816.97,445.1 815.24,448.55 815.98,451.02 C815.98,451.02 810.29,455.72 810.29,459.68 C810.29,463.64 811.03,466.17 814.29,467.26 C817.55,468.35 818.99,465.13 819.24,463.64 C819.49,462.15 821.71,460.64 822.95,462.4 C824.19,464.16 837.79,476.57 842.49,476.04 C842.49,476.04 845.95,482.99 852.63,477.52 L868.22,440.13 L863.43,434.44 Z" id="Path" fill="#FFC691" fill-rule="nonzero"></path>
            <path d="M1145,382.72 L1110.35,445.32 C1110.35,445.32 1050.42,520.02 1004.29,556.23 C996.29,562.49 988.7,567.62 981.92,570.98 C966.23,578.79 954.8,577.26 952.37,559.12 C950.01,541.49 951.24,521.28 954.7,500.78 C955.13,498.2 955.59,495.61 956.1,493.02 C960.399453,471.403545 966.442541,450.170804 974.17,429.53 C986.55,396.23 1000.71,370.97 1007.94,367.75 C1023.78,360.7 1118.78,373.57 1126.2,373.57 C1133.62,373.57 1145,382.72 1145,382.72 L1145,382.72 Z" id="Path" fill="#E0CA8E" fill-rule="nonzero"></path>
            <path d="M1126.17,494.25 L1152.17,406.73 L1140.55,408.73 L1106.88,475 L1100.2,575.43 L1095.75,613.04 L1040.83,623.43 L1035.83,632.75 C1035.83,632.75 1090.98,661.65 1122.15,630.48 C1153.32,599.31 1149.24,577.04 1147.38,555.89 C1145.52,534.74 1148.44,498.66 1126.17,494.25 L1126.17,494.25 Z M1135.64,542.73 L1134.16,544.41 C1124.69,520.29 1126.16,501.91 1126.16,501.91 C1138,508.23 1135.64,542.73 1135.64,542.73 Z" id="Shape" fill="#52514D" fill-rule="nonzero"></path>
            <path d="M954.6,500.78 C954.21,503.05 953.86,505.32 953.53,507.58 C927.84,504.77 906.42,502.04 888.74,499.91 C883.49,499.27 878.57,498.69 873.97,498.19 C874.09,496.75 874.22,495.34 874.37,494 C877.650194,494.381656 880.966945,494.317743 884.23,493.81 C885.83,493.57 887.33,493.29 888.74,492.98 C899.12,494.23 910.8,495.7 923.86,497.27 C927.475468,497.907995 931.124951,498.335382 934.79,498.55 C941.09,499.29 947.68,500 954.6,500.78 L954.6,500.78 Z" id="Path" fill="#000000" fill-rule="nonzero" opacity="0.1"></path>
            <path d="M974.14,429.54 C972.42,434.16 970.74,438.94 969.14,443.82 C963.705423,447.636878 957.791068,450.720143 951.55,452.99 C947.55,454.47 937.72,468.22 932.73,472.29 C927.55,476.49 919.62,484.73 915.42,486.64 C914.785214,486.932249 914.170529,487.266317 913.58,487.64 C911.45547,486.879946 909.395498,485.950284 907.42,484.86 C908.232741,484.308034 909.085049,483.816703 909.97,483.39 C914.17,481.48 922.1,473.24 927.28,469.04 C932.28,464.97 942.14,451.23 946.1,449.74 C949.81,448.37 966.91,442 974.14,429.54 L974.14,429.54 Z" id="Path" fill="#000000" fill-rule="nonzero" opacity="0.1"></path>
            <path d="M993.66,637.11 C993.66,637.11 1085.1,628.4 1093.51,624.44 C1101.92,620.48 1122.7,603.83 1117.26,569.85 C1111.82,535.87 1106.87,508.78 1114.26,483.49 C1121.65,458.2 1140.48,408.71 1140.48,408.71 C1140.48,408.71 1065,415 1033.65,400.3 L1020.29,420.58 L997.03,479.58 L989.37,525 L995.54,577.45 L989.37,622.45 L993.66,637.11 Z" id="Path" fill="#E6D5A5" fill-rule="nonzero"></path>
            <path d="M984.67,505.69 C984.67,505.69 978.48,496.41 956.08,493.03 C950.963121,492.280548 945.801234,491.879625 940.63,491.83 C923.74,491.59 913.48,488.28 907.39,484.9 C900.8,481.25 899.06,477.52 899.06,477.52 L854.66,483.52 C854.66,483.52 813.45,474.05 808.51,491.86 C803.57,509.67 810.25,548.52 813.71,563.11 C817.17,577.7 821.13,609.11 825.59,621.74 C830.05,634.37 839.94,641.54 856.51,646.97 C873.08,652.4 935.93,670.48 951.14,666.03 C966.35,661.58 1004.46,645.49 1006.94,597.5 C1007.65217,583.696716 1006.75953,569.857418 1004.28,556.26 C1000.28,533.76 993.93,518.26 997.53,502.26 C1003,478 1033.65,400.3 1033.65,400.3 C1033.65,400.3 1027.65,392.7 1022.41,397.3 L984.67,505.69 Z M975.14,620.85 C962.52,643.85 937.66,655.36 911.31,649.42 C884.96,643.48 841.17,642.37 832.64,606.42 C824.11,570.47 812.35,518.22 815.2,501.42 C817.34,488.76 830.7,487.07 862.03,490.06 C869.79,490.8 878.66,491.83 888.73,493.06 C906.68,495.23 928.47,498.06 954.73,500.87 L959.97,501.43 C959.97,501.43 977.9,501.77 979.09,531.86 C979.58,544.37 981.17,557.86 981.95,571.06 C983,589.53 982.51,607.4 975.14,620.85 L975.14,620.85 Z" id="Shape" fill="#52514D" fill-rule="nonzero"></path>
            <path d="M1129.83,363.68 C1130.01,370.61 1126.18,373.58 1126.18,373.58 C1118.76,373.58 1023.76,360.71 1007.92,367.76 C1000.69,370.98 986.53,396.25 974.15,429.54 C966.92,441.96 949.82,448.36 946.08,449.77 C942.08,451.25 932.25,465 927.26,469.07 C922.08,473.27 914.15,481.51 909.95,483.42 C909.065049,483.846703 908.212741,484.338034 907.4,484.89 C901.81178,488.857647 895.455834,491.613253 888.74,492.98 C887.33,493.29 885.83,493.57 884.23,493.81 C876.38,495 868.41,493.81 862.04,490 C859.186015,488.325966 856.685995,486.111274 854.68,483.48 C851.457285,479.136102 849.523429,473.972221 849.1,468.58 C847.1,448.78 863.45,434.44 863.45,434.44 C863.94,431.44 882.75,418.6 886.21,414.64 C889.67,410.68 902.54,399.8 905.76,393.86 C907.02,391.51 922.34,368.14 925.76,361.2 C929.18,354.26 958.42,314.2 966.33,307.27 C974.24,300.34 1005.55,293.79 1005.55,293.79 L1031.16,288.06 C1031.16,288.06 1077.67,289.46 1087.83,292.8 C1097.99,296.14 1099.44,301.34 1102.9,304.8 C1106.36,308.26 1120.22,328.06 1121.9,339.94 C1123.58,351.82 1129.63,356.75 1129.83,363.68 L1129.83,363.68 Z" id="Path" fill="#51C1B7" fill-rule="nonzero"></path>
            <polygon id="Path" fill="#B8BEBC" fill-rule="nonzero" points="916 734.42 940.58 734.42 940.58 803.22 916 803.22"></polygon>
            <polygon id="Path" fill="#000000" fill-rule="nonzero" opacity="0.1" points="916 734.42 940.58 734.42 940.58 743.75 916 743.75"></polygon>
            <path d="M912.67,803.21 L943.61,803.21 C945.266854,803.21 946.61,804.553146 946.61,806.21 L946.61,894.12 L909.7,894.12 L909.7,806.18 C909.716255,804.546495 911.036495,803.226255 912.67,803.21 Z" id="Path" fill="#312927" fill-rule="nonzero"></path>
            <polygon id="Path" fill="#413634" fill-rule="nonzero" points="934.66 920.06 921.62 920.06 917.71 866.53 939.31 866.53"></polygon>
            <circle id="Oval" fill="#000000" fill-rule="nonzero" cx="928.14" cy="932.73" r="14.9"></circle>
            <circle id="Oval" fill="#000000" fill-rule="nonzero" cx="772.95" cy="933.62" r="14.9"></circle>
            <path d="M909.7,864.3 L770.47,900.3 C767.139173,901.157583 764.81085,904.160544 764.81,907.6 L764.81,917.66 C764.806921,918.380655 765.125185,919.065188 765.678179,919.527305 C766.231172,919.989422 766.961351,920.181036 767.67,920.05 L909.67,894.13 L909.7,864.3 Z" id="Path" fill="#413634" fill-rule="nonzero"></path>
            <polygon id="Path" fill="#312927" fill-rule="nonzero" points="909.7 894.09 859.23 920.54 845.27 920.06 862.34 902.74"></polygon>
            <circle id="Oval" fill="#000000" fill-rule="nonzero" cx="1083.33" cy="933.62" r="14.9"></circle>
            <path d="M946.58,864.3 L1085.81,900.3 C1089.14083,901.157583 1091.46915,904.160544 1091.47,907.6 L1091.47,917.66 C1091.47308,918.380655 1091.15481,919.065188 1090.60182,919.527305 C1090.04883,919.989422 1089.31865,920.181036 1088.61,920.05 L946.61,894.13 L946.58,864.3 Z" id="Path" fill="#413634" fill-rule="nonzero"></path>
            <polygon id="Path" fill="#312927" fill-rule="nonzero" points="946.58 894.09 997.04 920.54 1011.01 920.06 993.94 902.74"></polygon>
            <circle id="Oval" fill="#000000" fill-rule="nonzero" cx="850.73" cy="932.73" r="14.9"></circle>
            <circle id="Oval" fill="#000000" fill-rule="nonzero" cx="1005.55" cy="932.73" r="14.9"></circle>
            <path d="M704.6,464.62 L703.32,464.19 L701.41,464.45 L702.12,465.74 C702.575681,466.534862 703.495939,466.940262 704.39,466.74 L708,466 L707.62,465.41 L707.62,464.18 L704.6,464.62 Z" id="Path" fill="#444649" fill-rule="nonzero"></path>
            <path d="M639.78,345.37 L639.07,349.25 C638.885117,350.259265 639.054687,351.301411 639.55,352.2 L701.4,464.45 C701.713062,465.019918 702.2984,465.387599 702.94772,465.422202 C703.59704,465.456805 704.21814,465.153417 704.59,464.62 L639.78,345.37 Z" id="Path" fill="#5B5D61" fill-rule="nonzero"></path>
            <ellipse id="Oval" fill="#000000" fill-rule="nonzero" opacity="0.3" cx="772.95" cy="948.52" rx="14.9" ry="2.19"></ellipse>
            <ellipse id="Oval" fill="#000000" fill-rule="nonzero" opacity="0.3" cx="850.73" cy="947.63" rx="14.9" ry="2.19"></ellipse>
            <ellipse id="Oval" fill="#000000" fill-rule="nonzero" opacity="0.3" cx="928.14" cy="947.63" rx="14.9" ry="2.19"></ellipse>
            <ellipse id="Oval" fill="#000000" fill-rule="nonzero" opacity="0.3" cx="1005.55" cy="947.63" rx="14.9" ry="2.19"></ellipse>
            <ellipse id="Oval" fill="#000000" fill-rule="nonzero" opacity="0.3" cx="1083.33" cy="948.52" rx="14.9" ry="2.19"></ellipse>
            <path d="M1070.76,250.62 C1065.76,272.29 1083.01,286.79 1087.85,292.81 C1088.54152,293.663182 1088.78552,294.794627 1088.50709,295.85698 C1088.22867,296.919333 1087.46109,297.785661 1086.44,298.19 C1060.14,308.39 1005.57,297.19 1005.57,293.79 C1005.50564,291.573099 1004.49338,289.490314 1002.79,288.07 C1002.79,288.07 999.17,291.5 987.11,292.99 C975.05,294.48 969.95,288.17 970.04,284.45 C969.96677,281.391092 969.595006,278.346645 968.93,275.36 C964.38,275.36 965.22,267.36 965.22,267.36 C961.22,265.23 961.54,260 961.6,257.84 C961.66,255.68 960.12,256.29 958.26,256.54 C955.336976,257.009419 952.532953,255.190476 951.77,252.33 C950.53,248.33 955.77,239.47 956.22,231.33 C956.67,223.19 953,223.91 950.28,218.47 C948.23,214.36 950.28,196.57 951.38,188.1 C951.778338,185.048873 952.873239,182.130277 954.58,179.57 C969.4,157.44 988.28,147.39 1004.41,142.99 C1032.86,135.24 1062.8,150.91 1071.55,179.07 C1076.64,195.47 1078.11,218.51 1070.76,250.62 Z" id="Path" fill="#FFC691" fill-rule="nonzero"></path>
            <path d="M1070.76,250.61 C1070.28731,252.643187 1069.99947,254.714959 1069.9,256.8 C1069.9,256.8 1047.13,262.01 1038.59,256.8 C1030.05,251.59 1027,213.26 1020.89,206.7 C1015.94,201.37 998.52,198.54 997.78,213.01 L997.78,221.68 L985.16,221.68 C985.16,221.68 985.9,204.68 969.57,202.89 L969.57,191.05 C969.572272,189.45367 968.324059,188.135136 966.73,188.05 C961.91,187.73 952.63,186.77 952.35,184.05 C952.887096,182.469383 953.630161,180.966442 954.56,179.58 C969.39,157.45 988.27,147.4 1004.39,143 C1032.85,135.25 1062.79,150.93 1071.53,179.07 C1076.64,195.47 1078.11,218.52 1070.76,250.61 L1070.76,250.61 Z" id="Path" fill="#563013" fill-rule="nonzero"></path>
            <path d="M1010,236.7 C1010,236.7 1012.35,253.09 1011.61,256.55 C1010.87,260.01 1001.46,272.63 1001.96,275.85 C1002.46,279.07 1002.77,288.07 1002.77,288.07" id="Path" stroke="#000000" stroke-width="1.48" opacity="0.1"></path>
            <path d="M1016.6,235.54 C1013.6,240.48 1005.96,237.28 1005.96,237.28 L1003.3,233.28 C1003.3,233.28 1010.97,236.49 1013.94,231.54 C1016.91,226.59 1023.1,224.37 1022.1,216.7 C1021.60275,212.669104 1020.47569,208.741276 1018.76,205.06 C1022.47,209.13 1024.21,216.37 1024.76,220.68 C1025.75,228.37 1019.57,230.6 1016.6,235.54 L1016.6,235.54 Z" id="Path" fill="#FFBC7E" fill-rule="nonzero"></path>
            <path d="M1033.48,400.79 C1021.84,398.79 1016.41,395.34 1018.38,385.22 C1020.35,375.1 1040.65,376.79 1040.65,376.79 C1040.65,376.79 1107.75,383.6 1144.97,382.73 C1144.97,382.73 1165.26,381.04 1167.24,391.16 C1169.22,401.28 1163.78,404.76 1152.16,406.73 L1140.54,408.73 C1072.54,417.9 1033.54,400.81 1033.54,400.81 L1033.48,400.79 Z" id="Path" fill="#D9BE74" fill-rule="nonzero"></path>
            <polygon id="Path" fill="#FFFFFF" fill-rule="nonzero" points="68.26 418.8 68.26 398.24 274.89 398.24 282.28 408.52 274.91 418.8"></polygon>
            <path d="M57.85,393.54 L279,393.54 C280.306763,393.448464 281.57113,394.024202 282.36,395.07 C287.248644,403.41201 287.225671,413.749799 282.3,422.07 C281.488399,423.042194 280.264351,423.572615 279,423.5 L57.85,423.5 L57.85,418.8 L276.47,418.8 C279.601829,412.304462 279.601829,404.735538 276.47,398.24 L57.85,398.24 L57.85,393.54 Z" id="Path" fill="#569959" fill-rule="nonzero"></path>
            <polygon id="Path" fill="#FFFFFF" fill-rule="nonzero" points="246.5 389.55 246.5 372.11 79.4 372.11 73.43 380.83 79.39 389.55"></polygon>
            <path d="M264.83,368.12 L77.23,368.12 C76.1229254,368.04008 75.0505372,368.525477 74.38,369.41 C70.2275579,376.490665 70.2467046,385.267519 74.43,392.33 C75.1159359,393.158151 76.156816,393.60796 77.23,393.54 L264.83,393.54 L264.83,389.54 L79.39,389.54 C76.7322452,384.030436 76.7322452,377.609564 79.39,372.1 L264.83,372.1 L264.83,368.12 Z" id="Path" fill="#AF4691" fill-rule="nonzero"></path>
            <ellipse id="Oval" fill="#000000" fill-rule="nonzero" opacity="0.3" cx="258.27" cy="817.01" rx="105.17" ry="5.59"></ellipse>
            <polygon id="Path" fill="#595959" fill-rule="nonzero" points="249.29 640.09 267.26 640.09 267.26 810.34 249.29 810.34"></polygon>
            <path d="M261.605,721.905 L261.605,905.465 C257.921261,905.465 254.935,902.478739 254.935,898.795 L254.935,728.575 C254.935,724.891261 257.921261,721.905 261.605,721.905 L261.605,721.905 Z" id="Path" fill="#595959" fill-rule="nonzero" transform="translate(258.270000, 813.685000) rotate(90.000000) translate(-258.270000, -813.685000) "></path>
            <polygon id="Path" fill="#494949" fill-rule="nonzero" points="249.29 629.59 267.26 629.59 267.26 640.09 249.29 640.09"></polygon>
            <polygon id="Path" fill="#383838" fill-rule="nonzero" points="131.68 298.82 249.68 298.82 249.68 368.07 131.68 368.07"></polygon>
            <polygon id="Path" fill="#DEDEE0" fill-rule="nonzero" points="131.68 363.12 249.68 363.12 249.68 368.07 131.68 368.07"></polygon>
            <polygon id="Path" fill="#DEDEE0" fill-rule="nonzero" points="131.68 298.82 249.68 298.82 249.68 302.61 131.68 302.61"></polygon>
            <polygon id="Path" fill="#F2F2F4" fill-rule="nonzero" points="131.68 302.61 249.68 302.61 249.68 315.21 131.68 315.21"></polygon>
            <circle id="Oval" fill="#B47056" fill-rule="nonzero" cx="225.18" cy="308.91" r="2.58"></circle>
            <path d="M190.68,367.57 C175.472685,367.575513 163.139219,355.253972 163.130021,340.046658 C163.120824,324.839345 175.439376,312.502894 190.646687,312.490012 C205.853998,312.47713 218.193433,324.792693 218.21,340 C218.210016,355.210883 205.890867,367.547931 190.68,367.57 L190.68,367.57 Z" id="Path" fill="#383838" fill-rule="nonzero"></path>
            <path d="M190.68,314 C205.039403,314 216.68,325.640597 216.68,340 C216.68,354.359403 205.039403,366 190.68,366 C176.320597,366 164.68,354.359403 164.68,340 C164.718462,325.656558 176.336558,314.038462 190.68,314 L190.68,314 Z M190.68,311 C174.663742,311 161.68,323.983742 161.68,340 C161.68,356.016258 174.663742,369 190.68,369 C206.696258,369 219.68,356.016258 219.68,340 C219.68,323.983742 206.696258,311 190.68,311 Z" id="Shape" fill="#585858" fill-rule="nonzero"></path>
            <path d="M190.68,359.41 C179.98063,359.409987 171.305538,350.739353 171.300026,340.039985 C171.294514,329.340616 179.960666,320.661048 190.660031,320.65001 C201.359396,320.638973 210.043438,329.300642 210.06,340 C210.065527,350.710423 201.390418,359.39896 190.68,359.41 L190.68,359.41 Z" id="Path" fill="#383838" fill-rule="nonzero"></path>
            <path d="M190.68,321.15 C198.318064,321.154055 205.201216,325.759836 208.118563,332.818811 C211.03591,339.877785 209.412644,347.999115 204.005995,353.394315 C198.599346,358.789516 190.474593,360.395563 183.421819,357.463259 C176.369044,354.530955 171.777864,347.638055 171.79,340 C171.801023,329.577433 180.247433,321.131023 190.67,321.12 L190.68,321.15 Z M190.67,320.12 C179.691883,320.125522 170.79632,329.028545 170.800001,340.006663 C170.803682,350.984781 179.705213,359.881837 190.683332,359.879997 C201.66145,359.878157 210.559999,350.978119 210.56,340 C210.56,329.020579 201.659421,320.12 190.68,320.12 L190.67,320.12 Z" id="Shape" fill="#585858" fill-rule="nonzero"></path>
            <circle id="Oval" fill="#9DD2D8" fill-rule="nonzero" cx="190.68" cy="340.03" r="16.47"></circle>
            <circle id="Oval" fill="#FFFFFF" fill-rule="nonzero" cx="185.84" cy="335.19" r="4.84"></circle>
            <path d="M152.18,298.82 L135.93,298.82 L135.93,296.32 C135.93,294.110861 137.720861,292.32 139.93,292.32 L148.18,292.32 C150.389139,292.32 152.18,294.110861 152.18,296.32 L152.18,298.82 Z" id="Path" fill="#DEDEE0" fill-rule="nonzero"></path>
            <path d="M209.71,298.82 L171.71,298.82 L173.77,290.57 C174.325354,288.343359 176.325148,286.780634 178.62,286.78 L202.8,286.78 C205.094852,286.780634 207.094646,288.343359 207.65,290.57 L209.71,298.82 Z" id="Path" fill="#DEDEE0" fill-rule="nonzero"></path>
            <path d="M202.93,298.82 L178.18,298.82 L178.18,293.34 C178.18,292.086314 179.196314,291.07 180.45,291.07 L200.67,291.07 C201.923686,291.07 202.94,292.086314 202.94,293.34 L202.93,298.82 Z" id="Path" fill="#FFFFFF" fill-rule="nonzero"></path>
            <path d="M140.55,330.62 L139,324.4 L149.4,321.73 L151,327.95 C151.108667,328.365205 151.051274,328.806413 150.84,329.18 C149.92415,330.785461 148.396722,331.951191 146.606508,332.410993 C144.816293,332.870796 142.916158,332.585409 141.34,331.62 C140.972309,331.395983 140.706747,331.037115 140.6,330.62 L140.55,330.62 Z" id="Path" fill="#C45A80" fill-rule="nonzero"></path>
            <polygon id="Path" fill="#FDB235" fill-rule="nonzero" points="137.75 319.73 114.87 230.7 115.62 216.83 115.83 212.88 117.92 216.24 125.26 228.03 148.15 317.06"></polygon>
            <polygon id="Path" fill="#221A0F" fill-rule="nonzero" points="115.62 216.83 115.83 212.88 117.92 216.24"></polygon>
            <polygon id="Path" fill="#EDAB6E" fill-rule="nonzero" points="125.26 228.03 122.18 229.52 119.98 229.04 118.28 230.52 114.87 230.7 115.62 216.83 117.92 216.24"></polygon>
            <polygon id="Path" fill="#DADADA" fill-rule="nonzero" transform="translate(143.543753, 320.763523) rotate(-14.410000) translate(-143.543753, -320.763523) " points="138.173753 318.353523 148.913753 318.353523 148.913753 323.173523 138.173753 323.173523"></polygon>
            <path d="M146.07,225.61 L152.62,225.61 C154.597179,225.61 156.2,227.212821 156.2,229.19 L156.2,292.64 L142.5,292.64 L142.5,229.19 C142.499992,227.216719 144.096727,225.615512 146.07,225.61 L146.07,225.61 Z" id="Path" fill="#61939C" fill-rule="nonzero"></path>
            <path d="M146.07,225.61 L152.62,225.61 C154.597179,225.61 156.2,227.212821 156.2,229.19 L156.2,236.37 L142.5,236.37 L142.5,229.19 C142.499992,227.216719 144.096727,225.615512 146.07,225.61 L146.07,225.61 Z" id="Path" fill="#2A2A2A" fill-rule="nonzero"></path>
            <path d="M146.07,225.61 L152.62,225.61 L152.62,217.4 C152.62,215.594029 151.155971,214.13 149.35,214.13 C147.544029,214.13 146.08,215.594029 146.08,217.4 L146.07,225.61 Z" id="Path" fill="#3E3A39" fill-rule="nonzero"></path>
            <polygon id="Path" fill="#466B73" fill-rule="nonzero" points="150.01 236.37 156.2 236.37 156.2 292.64 150.01 292.64"></polygon>
            <polygon id="Path" fill="#3A3F3B" fill-rule="nonzero" points="142.5 272.31 156.2 272.31 156.2 278.05 142.5 278.05"></polygon>
            <path d="M147.65,228.12 L151,228.12 L151,262.81 C151,263.743361 150.243361,264.5 149.31,264.5 C148.376639,264.5 147.62,263.743361 147.62,262.81 L147.62,228.12 L147.65,228.12 Z" id="Path" fill="#3D3D3D" fill-rule="nonzero"></path>
            <path d="M157.84,368.12 L125.08,368.12 C121.019876,368.122152 117.601989,365.082597 117.13,361.05 L108.74,289.26 C108.539247,287.551361 109.0816,285.838748 110.229308,284.557141 C111.377016,283.275534 113.019648,282.548247 114.74,282.56 L168.26,282.56 C169.980352,282.548247 171.622984,283.275534 172.770692,284.557141 C173.9184,285.838748 174.460753,287.551361 174.26,289.26 L165.78,361 C165.331936,365.04863 161.913344,368.114168 157.84,368.12 L157.84,368.12 Z" id="Path" fill="#E14D57" fill-rule="nonzero"></path>
            <path d="M168.22,282.56 C169.940352,282.548247 171.582984,283.275534 172.730692,284.557141 C173.8784,285.838748 174.420753,287.551361 174.22,289.26 L165.78,361 C165.308011,365.032597 161.890124,368.072152 157.83,368.07 L148.45,368.070001 L148.45,282.55986 L168.22,282.56 Z" id="Path" fill="#FFFFFF" fill-rule="nonzero" opacity="0.1"></path>
            <path d="M376.89,421.39 L332.48,421.39 C332.043191,421.388484 331.675226,421.063306 331.62,420.63 L319.19,321.16 L390.84,321.16 L377.75,420.63 C377.694774,421.063306 377.326809,421.388484 376.89,421.39 L376.89,421.39 Z" id="Path" fill="#E6E6E8" fill-rule="nonzero"></path>
            <path d="M374.38,423.53 L335,423.53 C334.700568,423.530851 334.418645,423.388995 334.240888,423.148034 C334.06313,422.907073 334.010806,422.59584 334.1,422.31 L334.38,421.39 L375,421.39 L375.28,422.31 C375.369194,422.59584 375.31687,422.907073 375.139112,423.148034 C374.961355,423.388995 374.679432,423.530851 374.38,423.53 L374.38,423.53 Z" id="Path" fill="#F2F2F2" fill-rule="nonzero"></path>
            <rect id="Rectangle" fill="#4A4146" fill-rule="nonzero" x="315.11" y="314.24" width="79.82" height="6.92" rx="1.32"></rect>
            <polygon id="Path" fill="#B2B2B2" fill-rule="nonzero" points="390.6 323.03 319.42 323.03 319.19 321.16 390.84 321.16"></polygon>
            <path d="M387,306 L323,306 C322.192596,306.00403 321.466807,306.493149 321.16,307.24 L318.36,314.24 L391.58,314.24 L388.78,307.24 C388.481839,306.512834 387.785432,306.027697 387,306 L387,306 Z" id="Path" fill="#4A4146" fill-rule="nonzero"></path>
            <polygon id="Path" fill="#6F6870" fill-rule="nonzero" points="317.49 314.24 321.93 314.24 321.93 321.16 317.49 321.16"></polygon>
            <polygon id="Path" fill="#6F6870" fill-rule="nonzero" points="331.56 306 327.11 306 323.84 314.24 328.28 314.24"></polygon>
            <polygon id="Path" fill="#B2B2B2" fill-rule="nonzero" points="375.17 421.94 334.2 421.94 334.36 421.39 375.01 421.39"></polygon>
            <polygon id="Path" fill="#CFA57D" fill-rule="nonzero" points="381.3 393.69 328.25 393.69 322.64 348.76 387.21 348.76"></polygon>
            <path d="M355,423.530004 L374.37,423.53 C374.669432,423.530851 374.951355,423.388995 375.129112,423.148034 C375.30687,422.907073 375.359194,422.59584 375.27,422.31 L374.99,421.39 L376.89,421.39 C377.323481,421.389161 377.69021,421.069338 377.75,420.64 L390.84,321.17 L393.6,321.17 C394.329016,321.17 394.92,320.579016 394.92,319.85 L394.92,315.56 C394.92,315.209914 394.780929,314.874167 394.533381,314.626619 C394.285833,314.379071 393.950086,314.24 393.6,314.24 L391.6,314.24 L388.8,307.24 C388.4989,306.506359 387.792775,306.019918 387,306 L355,306 L355,423.530004 Z" id="Path" fill="#000000" fill-rule="nonzero" opacity="0.1"></path>
        </g>
        <circle id="Oval" fill="#E1DEEF" cx="1249.5" cy="190.5" r="13.5"></circle>
        <circle id="Oval" fill="#FCE2DD" cx="70.5" cy="51.5" r="13.5"></circle>
        <circle id="Oval" fill="#FFE9CB" cx="108" cy="24" r="24"></circle>
    </g>
</svg>